<?xml version="1.0" encoding="utf-8"?>
<!-- Generator: Adobe Illustrator 18.0.0, SVG Export Plug-In . SVG Version: 6.00 Build 0)  -->
<!DOCTYPE svg PUBLIC "-//W3C//DTD SVG 1.1//EN" "http://www.w3.org/Graphics/SVG/1.1/DTD/svg11.dtd">
<svg version="1.1" id="Layer_1" xmlns="http://www.w3.org/2000/svg" xmlns:xlink="http://www.w3.org/1999/xlink" x="0px" y="0px"
	 width="841.9px" height="595.3px" viewBox="0 0 841.9 595.3" enable-background="new 0 0 841.9 595.3" xml:space="preserve">
<g>
	<rect y="0" fill="#F1F2F2" width="841.9" height="595.3"/>
	<g>
		<path fill="#D1D3D4" d="M173,462.4c-58.9-4.2-82.9-5.7-93.5,19.2c-10.6,24.9,26.7,52,206.5,43.5s306.6-0.8,362.7-8.5
			c56.1-7.7,50.5-46.1,26.1-55.4s-95,1.3-229,5.1C311.9,470.1,238.9,467.1,173,462.4z"/>
		<g>
			<g>
				<path fill="#A97C50" d="M306.6,383l-11.2,118.6c0,0,2.9,3.6,8.7,2.9l20.2-111.4L306.6,383z"/>
				<path fill="#A97C50" d="M427.8,383l11.2,118.6c0,0-2.9,3.6-8.7,2.9l-20.2-111.4L427.8,383z"/>
				<path fill="#8B5E3C" d="M322.2,383l-8.3,88.7c0,0,2.1,2.7,6.4,2.2l15-83.4L322.2,383z"/>
				<path fill="#8B5E3C" d="M412.2,383l8.3,88.7c0,0-2.1,2.7-6.4,2.2l-15-83.4L412.2,383z"/>
				<g>
					<g>
						<polygon fill="#A97C50" points="331.8,241.9 331.8,355.3 342.2,355.3 342.2,243.4 						"/>
						<polygon fill="#A97C50" points="407,241.9 407,355.3 396.6,355.3 396.6,243.4 						"/>
					</g>
				</g>
				<path fill="#8B5E3C" d="M317.9,181.3c-15.2,9.9-14.2,46,0.4,57.8c18.8,15.2,83,19.2,101.1,3.4c18.2-15.8,17-53.4,2-61
					c-18.3-9.2-27.9,1.4-50.4,1.4C348.6,182.9,332.6,171.7,317.9,181.3z"/>
				<path fill="#8B5E3C" d="M369.9,344.9c-36.9,0-72.1,13.8-74.4,36.9c-2.3,23.1,38.6,23.7,74.4,23.7s69.3-2.9,69.3-22.5
					S399.9,344.9,369.9,344.9z"/>
				<path fill="#A97C50" d="M369.9,395.1c-32.6,0-69.4-0.4-74-15.7c-0.2,0.8-0.3,1.6-0.4,2.5c-2.3,23.1,38.6,23.7,74.4,23.7
					s69.3-2.9,69.3-22.5c0-1.4-0.2-2.7-0.6-4C434.3,393,403.1,395.1,369.9,395.1z"/>
			</g>
			<g>
				<path fill="#A97C50" d="M145.7,383l-11.2,118.6c0,0,2.9,3.6,8.7,2.9l20.2-111.4L145.7,383z"/>
				<path fill="#A97C50" d="M248.9,383l11.2,118.6c0,0-2.9,3.6-8.7,2.9l-20.2-111.4L248.9,383z"/>
				<path fill="#8B5E3C" d="M114.4,383l-8.3,88.7c0,0,2.1,2.7,6.4,2.2l15-83.4L114.4,383z"/>
				<path fill="#8B5E3C" d="M204.5,383l8.3,88.7c0,0-2.1,2.7-6.4,2.2l-15-83.4L204.5,383z"/>
				<g>
					<g>
						<polygon fill="#A97C50" points="119.1,241.9 129.1,355.3 139.5,355.3 129.7,243.4 						"/>
						<polygon fill="#A97C50" points="194.3,241.9 204.2,355.3 193.8,355.3 184,243.4 						"/>
					</g>
				</g>
				<path fill="#8B5E3C" d="M100.6,181.3c-15.2,9.9-14.2,46,0.4,57.8c18.8,15.2,83,19.2,101.1,3.4s17-53.4,2-61
					c-18.3-9.2-27.9,1.4-50.4,1.4S115.3,171.7,100.6,181.3z"/>
				<g>
					<path fill="#8B5E3C" d="M170.4,344.9c-36.9,0-66.5,13.8-59.5,36.9c7,23.1,48.1,23.7,84,23.7s68.1-2.9,60.2-22.5
						S200.4,344.9,170.4,344.9z"/>
					<path fill="#A97C50" d="M190.7,395.1c-32.6,0-69.6-0.4-80.4-15.7c0.2,0.8,0.4,1.6,0.6,2.5c7,23.1,48.1,23.7,84,23.7
						c35.8,0,68.1-2.9,60.2-22.5c-0.5-1.4-1.3-2.7-2.2-4C254.2,393,223.9,395.1,190.7,395.1z"/>
				</g>
			</g>
			<g>
				<path fill="#A97C50" d="M633.6,383l11.2,118.6c0,0-2.9,3.6-8.7,2.9l-20.2-111.4L633.6,383z"/>
				<path fill="#A97C50" d="M530.4,383l-11.2,118.6c0,0,2.9,3.6,8.7,2.9l20.2-111.4L530.4,383z"/>
				<path fill="#8B5E3C" d="M664.8,383l8.3,88.7c0,0-2.1,2.7-6.4,2.2l-15-83.4L664.8,383z"/>
				<path fill="#8B5E3C" d="M574.8,383l-8.3,88.7c0,0,2.1,2.7,6.4,2.2l15-83.4L574.8,383z"/>
				<g>
					<g>
						<polygon fill="#A97C50" points="660.1,241.9 650.2,355.3 639.8,355.3 649.6,243.4 						"/>
						<polygon fill="#A97C50" points="585,241.9 575.1,355.3 585.5,355.3 595.3,243.4 						"/>
					</g>
				</g>
				<path fill="#8B5E3C" d="M678.7,181.3c15.2,9.9,14.2,46-0.4,57.8c-18.8,15.2-83,19.2-101.1,3.4c-18.2-15.8-17-53.4-2-61
					c18.3-9.2,27.9,1.4,50.4,1.4C647.9,182.9,664,171.7,678.7,181.3z"/>
				<g>
					<path fill="#8B5E3C" d="M608.8,344.9c36.9,0,66.5,13.8,59.5,36.9c-7,23.1-48.1,23.7-84,23.7s-68.1-2.9-60.2-22.5
						S578.9,344.9,608.8,344.9z"/>
					<path fill="#A97C50" d="M588.5,395.1c32.6,0,69.6-0.4,80.4-15.7c-0.2,0.8-0.4,1.6-0.6,2.5c-7,23.1-48.1,23.7-84,23.7
						c-35.8,0-68.1-2.9-60.2-22.5c0.5-1.4,1.3-2.7,2.2-4C525.1,393,555.4,395.1,588.5,395.1z"/>
				</g>
			</g>
			<g>
				<path fill="#4E7783" d="M350.6,343c0,0-5,30.6,10.6,42.1c15.5,11.5,76.4,19,76.4,19L426,472.6l12.1,6.1c0,0,24.2-42.9,31.7-68.2
					c7.6-25.3-0.8-46.7-51-67.4H350.6z"/>
				<path fill="#699298" d="M296.9,343c0,0-5,30.6,10.6,42.1c15.5,11.5,76.4,19,76.4,19l-11.5,68.4l12.1,6.1
					c0,0,24.2-42.9,31.7-68.2c7.6-25.3-0.8-46.7-51-67.4H296.9z"/>
				<path fill="#594A42" d="M424.9,471.7l-9.1,10.7l30.3,22.2c0,0,0.9-12.1-8.1-26L424.9,471.7z"/>
				<path fill="#594A42" d="M372.5,471.7l-9.1,10.7l30.3,22.2c0,0,0.9-12.1-8.1-26L372.5,471.7z"/>
				<path fill="#27AAE1" d="M296.9,343c0,0-2.2-119.3,16.9-134.4s83.5-12.2,92.4,6.9S419,342.9,419,342.9S347.8,363.2,296.9,343z"/>
				<g>
					<path fill="#FFE8B8" d="M407.4,131.3c0,0-6.3,14.4-8.7,34.6c-2.3,20.2-2.3,32.9-24.8,30c-22.5-2.9-34-30.6-35.2-50.2
						c-1.2-19.6,6.9-52.5,38.1-45.6S412,117.8,407.4,131.3z"/>
					<path fill="#FBCFAC" d="M387.9,141.3c0,0,2.6,7.7,8.8,17.1c6.2,9.5-7.2,14.6-10.4,3.5S387.9,141.3,387.9,141.3z"/>
					<circle fill="#594A42" cx="373.9" cy="136.6" r="3.2"/>
					<circle fill="#594A42" cx="398.2" cy="139.7" r="3.2"/>
					<path fill="#FFE8B8" d="M348.3,164.7l-2.7,34.1c0,0,5.5,12.5,15.3,11.4c9.7-1.1,9.6-9.3,9.6-9.3l0.8-16L348.3,164.7z"/>
					<path fill="#FBB040" d="M399.5,92.3c-14.7-10.1-40.2-11.2-43.3-1.6l0,0c-3.8,1.3-7.5,3.4-11.3,6.6c-24.2,20.8-15.8,68.7-1,70.9
						c0,0-4.7-36.3,22.6-59.7c0,0,2,6.2,18.6,14.3c16.6,8.1,19.4,15.9,19.4,15.9s8.2-4.2,9.9-15.1
						C416.3,112.8,414.3,102.4,399.5,92.3z"/>
					<path fill="#FFE8B8" d="M344.9,147.7c0,0-12.1-16.4-17.7-4.8c-5.6,11.6,4.8,22,17.7,16.4V147.7z"/>
					<g>
						<path fill="#594A42" d="M384.4,180.8c-0.6,0-1.2-0.1-1.9-0.3c-5.9-1.9-8.3-11.7-8.4-12.1l1.7-0.4c0,0.1,2.3,9.3,7.2,10.8
							c4.6,1.5,7.1-4.9,7.2-5.2l1.6,0.6C391,176.8,388.3,180.8,384.4,180.8z"/>
					</g>
				</g>
			</g>
			<g>
				<path fill="#4E7783" d="M203,342.9c0,0,71.2,11.5,84.5,31.2c13.3,19.6-14.4,104.4-14.4,104.4l-14.1-6.1l2.6-81.1l-65.8-18.5
					L203,342.9z"/>
				<path fill="#699298" d="M109.2,342.9c0,0,0,30.6,21.4,42.1s104.9,19,104.9,19l-19.1,67.6l13.1,6.9c0,0,33.2-42.9,43.6-68.2
					c10.4-25.3-1.1-46.7-70.1-67.4H109.2z"/>
				<path fill="#DC2A27" d="M134.6,202.1c19.1-15.6,72.1,0,77.9,15c5.8,15,13.9,66.9,13.9,66.9l38.6-26.5l8.1,8.9
					c0,0-31.1,48.2-46.7,48.2s-20.1-15-20.1-15l-3.3,43.3c0,0-44.8,11.5-93.8,0C109.2,342.9,102.5,228.3,134.6,202.1z"/>
				<g>
					<path fill="#FAB68F" d="M240.6,147.9c0,0-6.3,14.4-8.7,34.6s-2.3,32.9-24.8,30c-22.5-2.9-34-30.6-35.2-50.2
						c-1.2-19.6,6.9-52.5,38.1-45.6S245.2,134.4,240.6,147.9z"/>
					<path fill="#EC977E" d="M221.1,158c0,0,2.6,7.7,8.8,17.1c6.2,9.5-7.2,14.6-10.4,3.5C216.4,167.5,221.1,158,221.1,158z"/>
					<circle fill="#594A42" cx="207.1" cy="153.2" r="3.2"/>
					<circle fill="#594A42" cx="231.4" cy="156.3" r="3.2"/>
					<path fill="#594A42" d="M199.8,125.2c0,0,11.5,9.1,31.7,13s22.4-8.2,18.5-17.7c0,0-5.6,3-13.4,0c-7.8-3-34.2-27.3-58.4-6.5
						s-15.8,68.7-1,70.9C177.2,184.9,172.5,148.6,199.8,125.2z"/>
					<path fill="#FAB68F" d="M177.3,175l-12,23.9c0,0,4,13.1,13.8,13.1s10.6-8.1,10.6-8.1l2.7-15.8L177.3,175z"/>
					<path fill="#FAB68F" d="M178.2,164.3c0,0-12.1-16.4-17.7-4.8c-5.6,11.6,4.8,22,17.7,16.4V164.3z"/>
					<path fill="#FFFFFF" d="M225,190.2c-0.5-2.2-4.9-1.6-10.6-2.5c-5.7-0.9-7.9-9.5-13.3-5c-6.4,5.4,2.8,14.1,12,14.1
						C225.3,196.8,225.6,192.7,225,190.2z"/>
				</g>
				<g>
					<path fill="#FAB68F" d="M265,257.5c0,0-0.6-10.2,4.5-13.3c5.2-3,11-0.5,13,5.6s-0.5,14.8-9.4,16.6L265,257.5z"/>
					<path fill="#EC977E" d="M265,257.5c0,0,1.7-7,4.8-9.4c3-2.4,8.2-1.9,8.7,0c0.4,1.9-5.3,3.9-5.3,3.9s5.8,5.9,0,14.4L265,257.5z"
						/>
				</g>
				<path fill="#594A42" d="M216.4,471.6l-9.1,10.7l30.3,22.2c0,0,0.9-12.1-8.1-26L216.4,471.6z"/>
				<path fill="#594A42" d="M259,472.5l-7.2,11.3l32.3,14.4c0,0-2.3-11.5-11-19.6L259,472.5z"/>
			</g>
			<g>
				<path fill="#414042" d="M565.1,342.9c0,0-71.2,11.5-84.5,31.2S495,478.5,495,478.5l14.1-6.1l-2.6-81.1l65.8-18.5L565.1,342.9z"
					/>
				<path fill="#58595B" d="M658.9,342.9c0,0,0,30.6-21.4,42.1c-21.4,11.5-104.9,19-104.9,19l19.1,67.6l-13.1,6.9
					c0,0-33.2-42.9-43.6-68.2c-10.4-25.3,1.1-46.7,70.1-67.4H658.9z"/>
				<path fill="#FFDE17" d="M598.2,210.7c10.9-8,64.2-8.6,69.9,6.4c5.8,15,13.9,66.9,13.9,66.9l38.6-26.5l8.1,8.9
					c0,0-31.1,48.2-46.7,48.2s-20.1-15-20.1-15l-3.3,43.3c0,0-44.8,11.5-93.8,0C564.8,342.9,573.1,229.2,598.2,210.7z"/>
				<g>
					<path fill="#A46C35" d="M580.8,135.7c0,0,0.8,15.7-4.2,35.4c-5,19.7-9.5,31.6,12.6,36.8c22.1,5.3,42.7-16.5,50.7-34.5
						s12.1-51.6-19.5-56.1C588.8,112.8,581.3,121.5,580.8,135.7z"/>
					<path fill="#8E572A" d="M595.5,152.1c0,0-5.1,6.2-14.3,12.9c-9.2,6.6,1.6,16.2,8.5,7S595.5,152.1,595.5,152.1z"/>
					<circle fill="#594A42" cx="610.2" cy="152.6" r="3.2"/>
					<circle fill="#594A42" cx="586.4" cy="146.9" r="3.2"/>
					<path fill="#594A42" d="M639.9,173.5c8-17.9,12.1-51.6-19.5-56.1c-24-3.5-34.1,0.7-37.8,9.2c2.4,1.4,5.8,2.6,10.1,3.3
						C613,133.4,627,129,627,129c17,31.2,0.4,63.1,0,63.8C632.6,186.8,637,179.9,639.9,173.5z"/>
					<path fill="#A46C35" d="M629.3,184l3.8,31.5c0,0-8.4,10.8-17.6,7.4c-9.2-3.5-7.1-11.3-7.1-11.3l3.1-15.7L629.3,184z"/>
					<path fill="#A46C35" d="M633.4,173.2c0,0,17.1-11.1,18.3,1.8c1.2,12.8-12.2,18.9-22.4,9L633.4,173.2z"/>
					<path fill="#FFFFFF" d="M580.4,180.8c1.2-1.9,5.1,0.3,10.8,1.4c5.7,1.2,10.8-6.1,14.2,0c4.1,7.3-7.7,12.2-16.2,9
						C577.8,186.9,579,183,580.4,180.8z"/>
				</g>
				<path fill="#FFDE17" d="M598.2,210.7l-52.9,44.4l-32.7-51.6l-11.3,5c0,0,12.5,64.4,31.7,70.1c19.2,5.7,62.3-15.7,62.3-15.7
					S607.8,239.3,598.2,210.7z"/>
				<path fill="#A46C35" d="M512.6,203.5c0,0,1.6-9.3,6.2-16.6c4.5-7.4-0.8-8.9-3.1-4.1c-2.3,4.8-5.1,7.3-7.3,6.1
					c-2.2-1.1-0.6-22.6-3.9-21.9c-3.2,0.6-2.5,15.9-3.2,17c-0.7,1.2-2.7-14.8-6.8-15.2s3.2,18.4,1.9,20.1s-6.7-15.8-8.9-13.1
					c-2.2,2.7,4.3,15,3.7,17.2c-0.6,2.2-4.1-10.5-6.9-9s6.6,23.4,16.9,24.5L512.6,203.5z"/>
				<path fill="#A46C35" d="M719.5,258.3c0,0,1-9.4-1.3-17.7c-2.3-8.3,3.2-8.3,4.1-3.1c0.9,5.2,2.9,8.4,5.3,7.9s6.9-21.5,9.8-20
					c2.9,1.5-2,15.9-1.7,17.2c0.4,1.3,6.7-13.5,10.7-12.7c4.1,0.7-8.2,16.8-7.5,18.8s10.8-13.4,12.2-10.2c1.3,3.2-8.3,13.2-8.3,15.5
					c0,2.3,6.9-9,9.1-6.7c2.3,2.3-12.9,20.7-23.1,18.9L719.5,258.3z"/>
				<path fill="#594A42" d="M551.7,471.6l9.1,10.7l-30.3,22.2c0,0-0.9-12.1,8.1-26L551.7,471.6z"/>
				<path fill="#594A42" d="M509.1,472.5l7.2,11.3L484,498.1c0,0,2.3-11.5,11-19.6L509.1,472.5z"/>
			</g>
			<g>
				<polygon fill="#A97C50" points="203.4,303.2 155.3,367.1 598.2,367.1 548,303.2 				"/>
				<path fill="#A97C50" d="M184,373.1l6.9,136.6c0,0,0.8,3.5,11.2,0v-135L184,373.1z"/>
				<path fill="#A97C50" d="M563.7,373.1l-6.9,136.6c0,0-0.8,3.5-11.2,0v-135L563.7,373.1z"/>
				<polygon fill="#8B5E3C" points="155.3,367.1 157.1,379 597.3,377.8 598.2,367.1 				"/>
				<polygon fill="#F7941E" points="286.3,303.2 190.7,319.5 170,347.6 286.3,367.1 373.8,443.8 454.2,367.1 582.6,348 559.2,317.5 
					455,303.2 				"/>
				<polygon fill="#FFDE17" points="174.8,341 291.1,363.1 373.4,432.9 449.6,362 579.1,343.4 562.8,322.3 439.5,303.2 306.9,303.2 
					184.2,328.4 				"/>
			</g>
			<g>
				<path fill="#EC977E" d="M361.7,300.6c0,0-7.8-2-16.2,1.4s-16.2,8.8-13.6,10.4c2.6,1.6,10.2-2.6,11.4-2.6c1.2,0,10.7,2.3,20,3
					L361.7,300.6z"/>
				<path fill="#27AAE1" d="M400.6,208.6c0,0,51.2,44.8,59.6,79.8c8.4,35-97.2,24.5-97.2,24.5l-1.7-12.3l54.7-20.9
					C416,279.7,401.3,256.6,400.6,208.6z"/>
			</g>
			<ellipse fill="#F7941E" cx="376.3" cy="327.6" rx="31.9" ry="4.3"/>
			<g>
				<path fill="#27AAE1" d="M313.8,208.6c0,0-51.2,44.8-59.6,79.8c-8.4,35,97.2,24.5,97.2,24.5l1.7-12.3l-54.7-20.9
					C298.4,279.7,313.1,256.6,313.8,208.6z"/>
				<path fill="#FAB68F" d="M353.1,300.6c0,0,7.8-2,16.2,1.4s16.2,8.8,13.6,10.4s-10.2-2.6-11.4-2.6s-10.7,2.3-20,3L353.1,300.6z"/>
			</g>
			<g>
				<path fill="#ED1C24" d="M395.4,294.2c0,0-0.1,28.6-3.3,31.5c-3.2,2.9-25.4,4.4-28,0.3s-4.4-31.4-4.4-31.4S376.4,286,395.4,294.2
					z"/>
				<path fill="#ED1C24" d="M363.2,302.1l0.3,3.2c-2.8,0.2-8.6,1.1-8.3,4.7c0.2,2.9,5.5,5,9.4,6.2l0.6,5.5c0,0-13.9-2.7-13.8-12.2
					C351.5,300,363.2,302.1,363.2,302.1z"/>
				<path fill="#594A42" d="M393.8,295.1c0,0-7.8-2.5-17.3-2.4c-9.5,0.1-14.8,2.8-14.8,2.8s5.7,2.4,15,2.3
					C386.1,297.7,393.8,295.1,393.8,295.1z"/>
			</g>
			<ellipse fill="#F7941E" cx="242.2" cy="334.6" rx="31.9" ry="4.3"/>
			<g>
				<path fill="#FFFFFF" d="M256.7,302.3c0,0-0.5,28.6-3.7,31.5s-25.5,4-28,0c-2.6-4-4-31.5-4-31.5S237.8,293.9,256.7,302.3z"/>
				<path fill="#FFFFFF" d="M224.4,309.8l0.3,3.2c-2.8,0.2-8.6,1-8.4,4.6c0.2,2.9,5.4,5.1,9.3,6.3l0.5,5.5c0,0-13.9-2.9-13.6-12.4
					C212.8,307.5,224.4,309.8,224.4,309.8z"/>
				<path fill="#594A42" d="M255.2,303.2c0,0-7.8-2.6-17.3-2.6s-14.9,2.6-14.9,2.6s5.6,2.5,15,2.5
					C247.4,305.7,255.2,303.2,255.2,303.2z"/>
			</g>
			<g>
				<path fill="#DC2A27" d="M139.5,199.1l7.6,91l59.8,27.6l-1.4,13.5c0,0-66.8,4.7-83.7-9.3C76.7,284.7,96.8,221.6,139.5,199.1z"/>
				<path fill="#FAB68F" d="M206.9,317.7c0,0,10-7.5,15.4-5.2c5.4,2.3,7.8,8.9,5.2,14.6c-2.6,5.8-12,11.2-22,4L206.9,317.7z"/>
			</g>
			<ellipse fill="#F7941E" cx="516.3" cy="327.6" rx="31.9" ry="4.3"/>
			<g>
				<path fill="#ED1C24" d="M491.3,296.7c0,0,0.5,28.6,3.7,31.5c3.2,2.9,25.5,4,28,0c2.6-4,4-31.5,4-31.5S510.2,288.2,491.3,296.7z"
					/>
				<path fill="#ED1C24" d="M523.7,304.2l-0.3,3.2c2.8,0.2,8.6,1,8.4,4.6c-0.2,2.9-5.4,5.1-9.3,6.3l-0.5,5.5c0,0,13.9-2.9,13.6-12.4
					S523.7,304.2,523.7,304.2z"/>
				<path fill="#594A42" d="M492.9,297.5c0,0,7.8-2.6,17.3-2.6c9.5,0,14.9,2.6,14.9,2.6s-5.6,2.5-15,2.5
					C500.7,300,492.9,297.5,492.9,297.5z"/>
			</g>
		</g>
	</g>
</g>
</svg>
